<svg id="icons" enable-background="new 0 0 64 64" height="512" viewBox="0 0 64 64" width="512" xmlns="http://www.w3.org/2000/svg"><g><g><path d="m58.998 31.5c-.256 0-.512-.098-.707-.293-.391-.391-.391-1.023 0-1.414l2-2c.391-.391 1.023-.391 1.414 0s.391 1.023 0 1.414l-2 2c-.195.195-.451.293-.707.293z"/></g><g><path d="m60.997 29.5c-.208 0-.419-.065-.599-.199l-3.994-2.992c-.442-.332-.532-.958-.201-1.4.332-.44.958-.531 1.4-.201l3.994 2.992c.442.332.532.958.201 1.4-.196.261-.496.4-.801.4z"/></g><g><path d="m58.997 31.5c-.149 0-.302-.033-.445-.105l-1.996-.996c-.494-.246-.695-.847-.448-1.341.246-.493.846-.697 1.341-.448l1.996.996c.494.246.695.847.448 1.341-.175.35-.529.553-.896.553z"/></g><g><path d="m37.007 44.5c-.315 0-.626-.148-.82-.427-.316-.452-.207-1.076.246-1.393l19.996-13.996c.453-.316 1.076-.207 1.393.246.316.452.207 1.076-.246 1.393l-19.997 13.996c-.175.122-.374.181-.572.181z"/></g><g><path d="m39.008 32.488c-.419 0-.81-.265-.949-.685-.174-.523.109-1.09.634-1.265l17.994-5.988c.522-.17 1.091.109 1.265.634.174.523-.109 1.09-.634 1.265l-17.994 5.988c-.105.035-.212.051-.316.051z"/></g><g><path d="m37.006 44.5h-21.996c-.553 0-1-.447-1-1s.447-1 1-1h21.996c.553 0 1 .447 1 1s-.447 1-1 1z"/></g><g><path d="m39.007 32.488c-.225 0-.451-.076-.639-.231l-6.01-4.996c-.425-.353-.482-.983-.129-1.408.352-.424.98-.482 1.408-.129l6.01 4.996c.425.353.482.983.129 1.408-.197.237-.482.36-.769.36z"/></g><g><path d="m32.998 27.492h-17.988c-.553 0-1-.447-1-1s.447-1 1-1h17.988c.553 0 1 .447 1 1s-.447 1-1 1z"/></g><g><path d="m13.008 42.498c-.553 0-1-.447-1-1v-13.004c0-.553.447-1 1-1s1 .447 1 1v13.004c0 .553-.447 1-1 1z"/></g><g><path d="m22.998 27.492c-.553 0-1-.447-1-1v-2.996c0-.553.447-1 1-1s1 .447 1 1v2.996c0 .553-.447 1-1 1z"/></g><g><path d="m27 27.492c-.553 0-1-.447-1-1v-2.996c0-.553.447-1 1-1s1 .447 1 1v2.996c0 .553-.447 1-1 1z"/></g><g><path d="m59 44.496c-2.757 0-5-2.243-5-5 0-2.512 3.592-6.045 4.312-6.728.387-.365.99-.365 1.377 0 .719.683 4.311 4.216 4.311 6.728 0 2.757-2.243 5-5 5zm0-9.589c-1.416 1.482-3 3.54-3 4.589 0 1.654 1.346 3 3 3s3-1.346 3-3c0-1.052-1.583-3.108-3-4.589z"/></g><g><path d="m10.998 42.494c-6.063 0-10.996-4.933-10.996-10.996 0-.553.447-1 1-1s1 .447 1 1c0 4.961 4.035 8.996 8.996 8.996.553 0 1 .447 1 1s-.447 1-1 1z"/></g><g><path d="m10.998 39.494c-4.409 0-7.996-3.587-7.996-7.996 0-.553.447-1 1-1s1 .447 1 1c0 3.307 2.689 5.996 5.996 5.996.553 0 1 .447 1 1s-.447 1-1 1z"/></g><g><path d="m13 32.494c-.553 0-1-.447-1-1 0-2.757-2.243-5-5-5s-5 2.243-5 5c0 .553-.447 1-1 1s-1-.447-1-1c0-3.859 3.141-7 7-7s7 3.141 7 7c0 .553-.447 1-1 1z"/></g><g><path d="m9.994 32.494c-.553 0-1-.447-1-1 0-1.099-.894-1.994-1.994-1.994s-1.994.895-1.994 1.994c0 .553-.447 1-1 1s-1-.447-1-1c0-2.202 1.792-3.994 3.994-3.994s3.994 1.792 3.994 3.994c0 .553-.447 1-1 1z"/></g><g><path d="m12.998 35.496c-2.208 0-4.004-1.795-4.004-4.002 0-.553.447-1 1-1s1 .447 1 1c0 1.104.899 2.002 2.004 2.002.553 0 1 .447 1 1s-.447 1-1 1z"/></g><g><path d="m12.998 39.494h-2c-.553 0-1-.447-1-1s.447-1 1-1h2c.553 0 1 .447 1 1s-.447 1-1 1z"/></g><g><path d="m13 42.494h-2.002c-.553 0-1-.447-1-1s.447-1 1-1h2.002c.553 0 1 .447 1 1s-.447 1-1 1z"/></g><g><path d="m13.008 29.494c-.553 0-1-.447-1-1 0-1.655 1.347-3.002 3.002-3.002.553 0 1 .447 1 1s-.447 1-1 1-1.002.449-1.002 1.002-.447 1-1 1z"/></g><g><path d="m15.01 44.504c-1.659 0-3.01-1.351-3.01-3.01 0-.553.447-1 1-1s1 .447 1 1c0 .557.453 1.01 1.01 1.01.553 0 1 .447 1 1s-.447 1-1 1z"/></g><g><path d="m31.002 24.496h-12.004c-.553 0-1-.447-1-1v-3c0-.553.447-1 1-1h12.004c.553 0 1 .447 1 1v3c0 .553-.447 1-1 1zm-11.004-2h10.004v-1h-10.004z"/></g></g></svg>