<?xml version="1.0" encoding="UTF-8"?>
<svg xmlns="http://www.w3.org/2000/svg" id="Repair_Service" data-name="Repair Service" viewBox="0 0 64 64" width="512" height="512"><path d="M61,18H56a1,1,0,0,0-1,1v6H53V11a1,1,0,0,0-1-1H42V8h9a1,1,0,0,0,1-1V3a1,1,0,0,0-1-1H29a1,1,0,0,0-1,1V7a1,1,0,0,0,1,1h7v2H28a1,1,0,0,0-.64.23L21.64,15H13a1,1,0,0,0-1,1V26H9v-.76l.89-1.79A1,1,0,0,0,10,23V16a1,1,0,0,0-1-1H3a1,1,0,0,0-1,1v7a1,1,0,0,0,.11.45L3,25.24v7.52l-.89,1.79A1,1,0,0,0,2,35v7a1,1,0,0,0,1,1H9a1,1,0,0,0,1-1V35a1,1,0,0,0-.11-.45L9,32.76V32h3V43a1,1,0,0,0,1,1h6.42l3.71,6.5A1,1,0,0,0,24,51h2v8a3.009,3.009,0,0,0,3,3H59a3.009,3.009,0,0,0,3-3V19A1,1,0,0,0,61,18ZM8,22.76l-.89,1.79A1,1,0,0,0,7,25v8a1,1,0,0,0,.11.45L8,35.24V41H4V35.24l.89-1.79A1,1,0,0,0,5,33V25a1,1,0,0,0-.11-.45L4,22.76V17H8ZM12,30H9V28h3Zm41-3h2v1H53ZM30,6V4H50V6ZM40,8v2H38V8ZM26,49H24.58l-2.86-5H26Zm0-7H14V17h8a1,1,0,0,0,.64-.23L28.36,12H51V28H46.65l-1.67-7.2a4.965,4.965,0,0,0-8.78-3.01L23.74,24.01A7,7,0,1,0,26,37.7ZM40,26a4.949,4.949,0,0,0,3.73-1.71L44.59,28H30.3a6.924,6.924,0,0,0-3.37-3.34l8.11-4.06c-.01.14-.04.26-.04.4A5,5,0,0,0,40,26Zm-3-5a3,3,0,1,1,3,3A3.009,3.009,0,0,1,37,21ZM24,27a4,4,0,0,0,0,8,3.906,3.906,0,0,0,2-.56v1.14a5,5,0,1,1,2.1-7.43,2.861,2.861,0,0,0-.9.47A3.986,3.986,0,0,0,24,27Zm2,4a2,2,0,1,1-2-2A2.006,2.006,0,0,1,26,31ZM60,59a1,1,0,0,1-1,1H29a1,1,0,0,1-1-1V31a1,1,0,0,1,1-1H59a1,1,0,0,1,1,1Zm0-30.82A3,3,0,0,0,59,28H57V20h3Z"/><circle cx="40" cy="21" r="1"/><path d="M57.485,36.515a3.969,3.969,0,0,0-1.172-2.828,4.093,4.093,0,0,0-5.656,0l-6,6a2.879,2.879,0,0,1-.146-.916,6.943,6.943,0,0,0-2.045-5.041A7.016,7.016,0,0,0,34.5,32.378a1,1,0,0,0-.274,1.61l3.561,3.552L37.43,38.6l-1.06.355-3.563-3.562a1,1,0,0,0-1.609.275,7.077,7.077,0,0,0,.636,7.124,6.966,6.966,0,0,0,5.657,2.888,3.116,3.116,0,0,1,1.947.64l-1.923,1.923h-1a1,1,0,0,0-.814.419l-3.535,4.949a1,1,0,0,0,.106,1.288L35.1,57.728a1,1,0,0,0,1.288.106L41.338,54.3a1,1,0,0,0,.419-.814v-1l1.952-1.951,5.824,5.833A4.005,4.005,0,1,0,55.2,50.7l-5.122-5.122,6.238-6.238A3.971,3.971,0,0,0,57.485,36.515ZM37.5,43.68a4.973,4.973,0,0,1-4.931-5.7l2.827,2.826a1,1,0,0,0,1.024.241l2.121-.71a1,1,0,0,0,.63-.63l.71-2.121a1,1,0,0,0-.242-1.025l-2.826-2.82a5.018,5.018,0,0,1,4.243,1.405,4.961,4.961,0,0,1,1.457,3.6,4.947,4.947,0,0,0,.63,2.453l-.261.261a1,1,0,0,0,0,1.414h0L40.854,44.9A5.1,5.1,0,0,0,37.5,43.68Zm2.553,7.684a1,1,0,0,0-.293.707v.9l-3.841,2.744-1.631-1.631,2.744-3.841h.9a1,1,0,0,0,.707-.293l5.657-5.657,1.414,1.414Zm13.733.753a2.014,2.014,0,0,1,.007,2.83,2.067,2.067,0,0,1-2.842.007L45.123,49.12l2-2h0a1,1,0,0,0,1.414,0L48.661,47ZM54.9,37.929,47.829,45,45,42.171l7.071-7.07a2.047,2.047,0,0,1,2.828,0,2,2,0,0,1,0,2.828Z"/></svg>
