<?xml version="1.0" encoding="iso-8859-1"?>
<!-- Generator: Adobe Illustrator 19.0.0, SVG Export Plug-In . SVG Version: 6.00 Build 0)  -->
<svg version="1.1" id="Capa_1" xmlns="http://www.w3.org/2000/svg" xmlns:xlink="http://www.w3.org/1999/xlink" x="0px" y="0px"
	 viewBox="0 0 488 488" style="enable-background:new 0 0 488 488;" xml:space="preserve">
<g>
	<g>
		<g>
			<path d="M188,128h-2.84C201.504,114.792,212,94.608,212,72c0-39.704-32.296-72-72-72S68,32.296,68,72
				c0,22.608,10.496,42.792,26.84,56H92c-22.056,0-40,17.944-40,40v88h48v20.936l-24.992,3.128l1.984,15.872L100,293.064v15.88
				l-24.992,3.128l1.984,15.872l23.008-2.88v15.88l-24.992,3.128l1.984,15.872l23.008-2.88v17.056C85.392,385.864,76,403.84,76,424
				c0,35.288,28.712,64,64,64s64-28.712,64-64c0-20.16-9.392-38.144-24-49.88v-27.056l24.992-3.128l-1.984-15.872L180,330.936
				v-15.88l24.992-3.128l-1.984-15.872L180,298.936v-15.88l24.992-3.128l-1.984-15.872L180,266.936V256h48v-88
				C228,145.944,210.056,128,188,128z M84,72c0-30.872,25.128-56,56-56s56,25.128,56,56s-25.128,56-56,56S84,102.872,84,72z
				 M188,424c0,26.472-21.528,48-48,48s-48-21.528-48-48s21.528-48,48-48S188,397.528,188,424z M164,285.056v15.88l-48,6v-15.88
				L164,285.056z M116,274.936V256h48v12.936L116,274.936z M164,317.056v15.88l-48,6v-15.88L164,317.056z M164,349.064v15.648
				c-7.416-3.016-15.512-4.712-24-4.712c-8.488,0-16.584,1.696-24,4.712v-9.648L164,349.064z M212,208h-16v16h16v16H68v-16h112v-16
				H68v-40c0-13.232,10.768-24,24-24h96c13.232,0,24,10.768,24,24V208z"/>
			<path d="M140,112c8.424,0,16.48-2.584,23.304-7.488l-9.328-13C149.888,94.448,145.056,96,140,96c-13.232,0-24-10.768-24-24
				s10.768-24,24-24s24,10.768,24,24c0,4.208-1.104,8.344-3.184,11.952l13.856,8C178.16,85.912,180,79.016,180,72
				c0-22.056-17.944-40-40-40c-22.056,0-40,17.944-40,40C100,94.056,117.944,112,140,112z"/>
			<path d="M140,392c-17.648,0-32,14.352-32,32s14.352,32,32,32s32-14.352,32-32S157.648,392,140,392z M140,440
				c-8.824,0-16-7.176-16-16c0-8.824,7.176-16,16-16c8.824,0,16,7.176,16,16C156,432.824,148.824,440,140,440z"/>
			<path d="M436,256v-88c0-22.056-17.944-40-40-40h-2.84C409.504,114.792,420,94.608,420,72c0-39.704-32.296-72-72-72
				c-39.704,0-72,32.296-72,72c0,22.608,10.496,42.792,26.84,56H300c-22.056,0-40,17.944-40,40v88h48v20.936l-24.992,3.128
				l1.984,15.872L308,293.064v15.88l-24.992,3.128l1.984,15.872l23.008-2.88v15.88l-24.992,3.128l1.984,15.872l23.008-2.88v17.056
				c-14.608,11.744-24,29.72-24,49.88c0,35.288,28.712,64,64,64c35.288,0,64-28.712,64-64c0-20.16-9.392-38.144-24-49.88v-27.056
				l24.992-3.128l-1.984-15.872L388,330.936v-15.88l24.992-3.128l-1.984-15.872L388,298.936v-15.88l24.992-3.128l-1.984-15.872
				L388,266.936V256H436z M292,72c0-30.872,25.128-56,56-56s56,25.128,56,56s-25.128,56-56,56S292,102.872,292,72z M396,424
				c0,26.472-21.528,48-48,48s-48-21.528-48-48s21.528-48,48-48S396,397.528,396,424z M372,285.056v15.88l-48,6v-15.88L372,285.056z
				 M324,274.936V256h48v12.936L324,274.936z M372,317.056v15.88l-48,6v-15.88L372,317.056z M372,349.064v15.648
				c-7.416-3.016-15.512-4.712-24-4.712c-8.488,0-16.584,1.696-24,4.712v-9.648L372,349.064z M276,240v-16h112v-16H276v-40
				c0-13.232,10.768-24,24-24h96c13.232,0,24,10.768,24,24v40h-16v16h16v16H276z"/>
			<path d="M348,112c22.056,0,40-17.944,40-40c0-22.056-17.944-40-40-40c-22.056,0-40,17.944-40,40C308,94.056,325.944,112,348,112z
				 M348,48c13.232,0,24,10.768,24,24s-10.768,24-24,24s-24-10.768-24-24S334.768,48,348,48z"/>
			<path d="M348,392c-17.648,0-32,14.352-32,32s14.352,32,32,32c6.048,0,11.936-1.696,17.032-4.904l-8.528-13.528
				C353.968,439.16,351.024,440,348,440c-8.824,0-16-7.176-16-16c0-8.824,7.176-16,16-16c8.824,0,16,7.176,16,16
				c0,2.056-0.384,4.056-1.144,5.944l14.856,5.936c1.52-3.784,2.288-7.784,2.288-11.88C380,406.352,365.648,392,348,392z"/>
		</g>
	</g>
</g>
<g>
</g>
<g>
</g>
<g>
</g>
<g>
</g>
<g>
</g>
<g>
</g>
<g>
</g>
<g>
</g>
<g>
</g>
<g>
</g>
<g>
</g>
<g>
</g>
<g>
</g>
<g>
</g>
<g>
</g>
</svg>
