<?xml version="1.0" encoding="iso-8859-1"?>
<!-- Generator: Adobe Illustrator 19.0.0, SVG Export Plug-In . SVG Version: 6.00 Build 0)  -->
<svg version="1.1" id="Capa_1" xmlns="http://www.w3.org/2000/svg" xmlns:xlink="http://www.w3.org/1999/xlink" x="0px" y="0px"
	 viewBox="0 0 496 496" style="enable-background:new 0 0 496 496;" xml:space="preserve">
<g>
	<g>
		<g>
			<path d="M461.752,240.584c-13.496-95.688-87.648-172.096-182.2-189.016C277.312,31.616,260.536,16,240,16
				c-20.528,0-37.296,15.608-39.552,35.544c-8.264,1.472-16.4,3.536-24.448,5.936V0H0v128h16v144c0,123.512,100.488,224,224,224
				c107.144,0,196.904-75.624,218.832-176.288C479.544,318.232,496,301.088,496,280C496,259.912,481.064,243.4,461.752,240.584z
				 M240,32c10.84,0,19.92,7.272,22.888,17.16C255.36,48.392,247.728,48,240,48c-7.696,0-15.336,0.52-22.928,1.288
				C220,39.336,229.112,32,240,32z M176,116.408c14.48-2.872,30.528-4.408,48-4.408c66.848,0,136,44.888,136,120
				c0,33.064-13.44,63.04-35.144,84.76C331.944,303.384,336,288.168,336,272c0-52.936-43.064-96-96-96
				c-33.368,0-62.792,17.136-80,43.048V128h16V116.408z M248,208v-15.592c16.064,1.6,30.736,7.984,42.592,17.688l-34.44,34.44
				c-2.528-1.488-5.248-2.64-8.152-3.4V224h-16v17.136c-2.904,0.752-5.632,1.904-8.152,3.4l-34.44-34.44
				c11.856-9.704,26.528-16.088,42.592-17.688V208H248z M212.536,255.848c-1.488,2.528-2.64,5.248-3.4,8.152h-48.728
				c1.6-16.064,7.976-30.736,17.688-42.592L212.536,255.848z M209.136,280c0.752,2.904,1.904,5.632,3.4,8.152l-34.44,34.44
				c-9.704-11.856-16.088-26.528-17.688-42.592H209.136z M223.848,299.464c2.528,1.488,5.248,2.64,8.152,3.4v48.728
				c-16.064-1.6-30.736-7.984-42.592-17.688L223.848,299.464z M224,272c0-8.824,7.176-16,16-16c8.824,0,16,7.176,16,16
				c0,8.824-7.176,16-16,16C231.176,288,224,280.824,224,272z M248,302.864c2.904-0.752,5.632-1.904,8.152-3.4l34.44,34.44
				c-11.816,9.672-26.424,16.048-42.424,17.68c-0.056,0.008-0.112,0.008-0.168,0.008V302.864z M267.464,288.152
				c1.488-2.528,2.64-5.248,3.4-8.152h48.728c-1.6,16.064-7.976,30.736-17.688,42.592L267.464,288.152z M270.864,264
				c-0.752-2.904-1.904-5.632-3.4-8.152l34.44-34.44c9.704,11.856,16.088,26.528,17.688,42.592H270.864z M16,48h112V32H16V16h144v16
				h-16v16h16v64H16V48z M240,480c-114.688,0-208-93.312-208-208V128h112v144c0,52.936,43.064,96,96,96
				c3.312,0,6.576-0.168,9.8-0.496C320.216,362.448,376,303.68,376,232c0-85.128-77.288-136-152-136c-17.28,0-33.32,1.424-48,4.104
				V74.2c20.624-6.664,42.096-10.2,64-10.2c114.688,0,208,93.312,208,208S354.688,480,240,480z M461.776,303.216
				C463.208,293.008,464,282.6,464,272c0-4.944-0.216-9.832-0.536-14.696C473.032,260.464,480,269.384,480,280
				C480,291.232,472.216,300.616,461.776,303.216z"/>
			<rect x="48" y="144" width="16" height="16"/>
			<rect x="96" y="248" width="16" height="16"/>
			<rect x="136" y="392" width="16" height="16"/>
			<rect x="280" y="376" width="16" height="16"/>
			<rect x="224" y="440" width="16" height="16"/>
			<rect x="392" y="312" width="16" height="16"/>
		</g>
	</g>
</g>
<g>
</g>
<g>
</g>
<g>
</g>
<g>
</g>
<g>
</g>
<g>
</g>
<g>
</g>
<g>
</g>
<g>
</g>
<g>
</g>
<g>
</g>
<g>
</g>
<g>
</g>
<g>
</g>
<g>
</g>
</svg>
