<?xml version="1.0" encoding="iso-8859-1"?>
<!-- Generator: Adobe Illustrator 19.0.0, SVG Export Plug-In . SVG Version: 6.00 Build 0)  -->
<svg version="1.1" id="Capa_1" xmlns="http://www.w3.org/2000/svg" xmlns:xlink="http://www.w3.org/1999/xlink" x="0px" y="0px"
	 viewBox="0 0 512 512" style="enable-background:new 0 0 512 512;" xml:space="preserve">
<g>
	<g>
		<path d="M470.752,273.837c-0.938-6.608-6.13-11.801-12.738-12.741l-152.093-21.644l-16.176-60.38
			c-3.111-11.611-10.557-21.315-20.966-27.325l-54.189-31.285l15-25.98l38.97,22.499c7.142,4.125,16.331,1.715,20.49-5.49
			c4.142-7.174,1.684-16.348-5.49-20.49l-103.92-59.998c-7.176-4.144-16.35-1.684-20.49,5.49c-4.142,7.174-1.684,16.348,5.49,20.49
			l38.97,22.499l-15,25.98l-62.841-36.283L92.058,31.162C71.656,8.156,34.792,11.891,19.419,38.518L6.042,61.687
			c-9.7,16.801-7.569,37.84,5.302,52.355l41.422,46.713l-39.593,68.577c-12.406,21.488-5.018,49.064,16.471,61.469l168.491,97.279
			c12.515,7.226,27.889,8.015,41.087,2.01L462.066,289.62C468.15,286.878,471.691,280.445,470.752,273.837z M33.789,94.138
			c-4.291-4.838-5.001-11.852-1.768-17.452l13.378-23.169c5.118-8.865,17.414-10.12,24.212-2.452l28.153,31.748
			c-2.537,4.394-25.303,43.827-29.187,50.555L33.789,94.138z M226.844,362.763c-4.399,2.002-9.524,1.753-13.711-0.663
			L44.643,264.821c-7.163-4.136-9.626-13.328-5.491-20.49l7.5-12.99l206.829,119.412L226.844,362.763z M287.172,335.564
			L61.651,205.362c7.239-12.538,58.716-101.699,59.998-103.92c13.591,7.847,116.966,67.53,132.129,76.284
			c3.471,2.003,5.953,5.238,6.99,9.108l18.741,69.953c1.555,5.805,6.426,10.122,12.376,10.969l110.736,15.759L287.172,335.564z"/>
	</g>
</g>
<g>
	<g>
		<path d="M504.884,407.645l-39.326-83.056c-2.481-5.24-7.76-8.581-13.557-8.581s-11.076,3.341-13.557,8.581l-39.326,83.056
			c-4.657,8.671-7.116,18.466-7.116,28.36c0,33.083,26.915,59.998,59.998,59.998S512,469.089,512,436.006
			C512,426.111,509.541,416.316,504.884,407.645z M452.002,466.005c-16.542,0-29.999-13.458-29.999-29.999
			c0-5.104,1.23-9.939,3.656-14.37c0.141-0.257,0.274-0.519,0.4-0.784l25.943-54.793l25.943,54.793
			c0.125,0.265,0.259,0.527,0.4,0.784c2.426,4.431,3.656,9.266,3.656,14.37C482.001,452.547,468.543,466.005,452.002,466.005z"/>
	</g>
</g>
<g>
</g>
<g>
</g>
<g>
</g>
<g>
</g>
<g>
</g>
<g>
</g>
<g>
</g>
<g>
</g>
<g>
</g>
<g>
</g>
<g>
</g>
<g>
</g>
<g>
</g>
<g>
</g>
<g>
</g>
</svg>
