<svg id="Capa_1" enable-background="new 0 0 512 512" height="512" viewBox="0 0 512 512" width="512" xmlns="http://www.w3.org/2000/svg"><g><path d="m437.02 74.98c-48.353-48.351-112.64-74.98-181.02-74.98-49.028 0-96.674 13.903-137.787 40.207-3.489 2.232-4.508 6.87-2.276 10.359s6.872 4.508 10.36 2.275c38.695-24.755 83.546-37.841 129.703-37.841 132.888 0 241 108.112 241 241s-108.112 241-241 241-241-108.112-241-241c0-69.799 30.238-136.118 82.962-181.953 3.126-2.718 3.458-7.455.74-10.581s-7.456-3.456-10.581-.739c-56.002 48.684-88.121 119.129-88.121 193.273 0 68.38 26.629 132.668 74.98 181.02 48.353 48.351 112.64 74.98 181.02 74.98s132.667-26.629 181.02-74.98c48.351-48.352 74.98-112.64 74.98-181.02s-26.629-132.668-74.98-181.02z"/><path d="m445.24 193.137c3.879-1.453 5.845-5.776 4.392-9.655-14.616-39.008-40.405-72.373-74.582-96.489-34.955-24.667-76.122-37.705-119.05-37.705-113.981 0-206.712 92.73-206.712 206.712s92.731 206.712 206.712 206.712 206.712-92.731 206.712-206.712c0-12.312-1.091-24.649-3.244-36.67-.73-4.077-4.632-6.793-8.704-6.061-4.078.73-6.791 4.628-6.061 8.705 1.997 11.15 3.009 22.598 3.009 34.025 0 105.71-86.001 191.712-191.712 191.712s-191.712-86.001-191.712-191.711 86.002-191.712 191.712-191.712c79.524 0 151.693 50.016 179.585 124.457 1.454 3.878 5.777 5.844 9.655 4.392z"/><path d="m384.815 212.871c10.774-6.831 17.397-18.784 17.397-31.604 0-10.289-4.304-20.23-11.81-27.273-7.61-7.144-17.556-10.705-28.015-10.048-18.407 1.169-33.389 15.906-34.85 34.28-1.118 14.069 5.468 27.188 17.277 34.646v21.543c0 .873-.71 1.584-1.584 1.584h-67.23v-23.127c11.807-7.456 18.395-20.576 17.277-34.646-1.461-18.374-16.443-33.111-34.85-34.28-10.459-.663-20.405 2.904-28.015 10.048-7.505 7.043-11.81 16.984-11.81 27.273 0 12.818 6.624 24.771 17.397 31.604v23.129h-68.815v-23.127c11.807-7.456 18.395-20.576 17.277-34.646-1.461-18.374-16.443-33.111-34.85-34.28-10.456-.656-20.404 2.905-28.015 10.048-7.505 7.043-11.81 16.984-11.81 27.273 0 12.818 6.624 24.771 17.397 31.604v42.045c0 4.143 3.358 7.5 7.5 7.5s7.5-3.357 7.5-7.5v-43.792c0-4.268-2.329-8.246-6.077-10.385-6.983-3.983-11.321-11.445-11.321-19.472 0-6.253 2.512-12.055 7.074-16.336 4.557-4.277 10.521-6.427 16.8-6.015 11.011.698 19.974 9.511 20.847 20.499.699 8.791-3.607 16.96-11.235 21.316-3.756 2.144-6.089 6.126-6.089 10.395v32.373c0 4.143 3.358 7.5 7.5 7.5h83.818c4.142 0 7.5-3.357 7.5-7.5v-32.376c0-4.268-2.329-8.246-6.076-10.385-6.983-3.983-11.321-11.445-11.321-19.472 0-6.253 2.512-12.055 7.074-16.336 4.558-4.277 10.525-6.427 16.8-6.015 11.011.698 19.974 9.511 20.847 20.499.699 8.791-3.607 16.96-11.235 21.316-3.756 2.144-6.089 6.126-6.089 10.395v32.374c0 4.143 3.358 7.5 7.5 7.5h74.731c9.145 0 16.584-7.439 16.584-16.584v-23.289c0-4.269-2.333-8.251-6.086-10.393-7.63-4.358-11.937-12.527-11.238-21.318.874-10.988 9.836-19.801 20.847-20.499 6.274-.413 12.242 1.736 16.8 6.015 4.562 4.281 7.074 10.083 7.074 16.336 0 8.026-4.338 15.488-11.321 19.472-3.748 2.139-6.077 6.117-6.077 10.385v23.292c0 12.171-8.223 22.458-19.404 25.599-.068.018-.136.037-.204.057-2.224.605-4.563.929-6.976.929h-74.73c-4.142 0-7.5 3.357-7.5 7.5v32.376c0 4.268 2.329 8.246 6.077 10.385 6.982 3.983 11.32 11.444 11.32 19.472 0 6.253-2.512 12.055-7.074 16.336-4.558 4.278-10.522 6.419-16.8 6.015-11.011-.698-19.974-9.511-20.847-20.499-.699-8.791 3.607-16.96 11.235-21.316 3.756-2.144 6.089-6.126 6.089-10.395v-32.376c0-4.143-3.358-7.5-7.5-7.5h-83.815c-4.142 0-7.5 3.357-7.5 7.5v32.376c0 4.268 2.329 8.246 6.077 10.385 6.982 3.983 11.32 11.444 11.32 19.472 0 6.253-2.512 12.055-7.074 16.336-4.558 4.278-10.527 6.419-16.8 6.015-11.011-.698-19.974-9.511-20.847-20.499-.699-8.791 3.607-16.96 11.235-21.316 3.756-2.144 6.089-6.126 6.089-10.395v-10.957c0-4.143-3.358-7.5-7.5-7.5s-7.5 3.357-7.5 7.5v9.211c-11.807 7.456-18.395 20.576-17.277 34.646 1.461 18.374 16.443 33.111 34.85 34.28 10.454.653 20.405-2.904 28.015-10.048 7.505-7.043 11.81-16.984 11.81-27.273 0-12.82-6.624-24.773-17.397-31.604v-23.129h68.814v23.127c-11.807 7.456-18.395 20.576-17.277 34.646 1.511 18.998 17.547 34.358 37.315 34.358 9.546 0 18.54-3.547 25.55-10.126 7.505-7.043 11.809-16.984 11.809-27.273 0-12.82-6.624-24.773-17.397-31.604v-23.128c71.861 0 67.626.014 68.815-.03v23.156c-11.807 7.457-18.395 20.577-17.277 34.647 1.51 18.996 17.546 34.358 37.314 34.358 9.546 0 18.541-3.547 25.55-10.126 7.505-7.044 11.81-16.984 11.81-27.273 0-12.818-6.624-24.771-17.397-31.604zm2.398 117.861c0 6.253-2.512 12.055-7.074 16.336-4.558 4.278-10.524 6.419-16.8 6.015-11.011-.698-19.974-9.511-20.847-20.499-.699-8.791 3.607-16.96 11.235-21.316 3.756-2.144 6.089-6.126 6.089-10.395v-28.324c3.632-1.585 6.994-3.675 10-6.18v34.507c0 4.268 2.329 8.247 6.076 10.385 6.983 3.983 11.321 11.445 11.321 19.471z"/></g></svg>